# xmcd
# 
# Track frame offsets:
#     150
#     17802
#     35414
#     50759
#     67873
#     84472
#     99721
#     119236
#     136411
#     151673
#     167330
#     181955
# 
# Disc length: 2662
# 
# Revision: 1
# Processed by: cddbd v1.5.2PL0 Copyright (c) Steve Scherf et al.
# Submitted via: fre:ac v1.0.27
# 
DISCID=990a640c
DTITLE=江蕙 - 傷心的所在
DYEAR=1986
DGENRE=Pop
TTITLE0=倔強的愛
TTITLE1=傷心的所在
TTITLE2=月娘半屏圓
TTITLE3=心愛緊返來
TTITLE4=到底為啥代
TTITLE5=黃昏的故鄉
TTITLE6=為愛犧牲
TTITLE7=為著你
TTITLE8=補償
TTITLE9=漂浪之女
TTITLE10=港都戀歌
TTITLE11=望月思鄉
EXTD=
EXTT0=
EXTT1=
EXTT2=
EXTT3=
EXTT4=
EXTT5=
EXTT6=
EXTT7=
EXTT8=
EXTT9=
EXTT10=
EXTT11=
PLAYORDER=
